<?xml version="1.0" encoding="UTF-8" standalone="no"?>
<!-- Created with Inkscape (http://www.inkscape.org/) -->

<svg
   width="400"
   height="150"
   viewBox="0 0 105.83333 39.6875"
   version="1.1"
   id="svg2766"
   inkscape:version="1.2.2 (b0a8486541, 2022-12-01)"
   sodipodi:docname="logo.svg"
   xmlns:inkscape="http://www.inkscape.org/namespaces/inkscape"
   xmlns:sodipodi="http://sodipodi.sourceforge.net/DTD/sodipodi-0.dtd"
   xmlns:xlink="http://www.w3.org/1999/xlink"
   xmlns="http://www.w3.org/2000/svg"
   xmlns:svg="http://www.w3.org/2000/svg">
  <sodipodi:namedview
     id="namedview2768"
     pagecolor="#505050"
     bordercolor="#eeeeee"
     borderopacity="1"
     inkscape:showpageshadow="0"
     inkscape:pageopacity="0"
     inkscape:pagecheckerboard="0"
     inkscape:deskcolor="#505050"
     inkscape:document-units="px"
     showgrid="false"
     inkscape:zoom="2"
     inkscape:cx="125.25"
     inkscape:cy="22.75"
     inkscape:window-width="2560"
     inkscape:window-height="1392"
     inkscape:window-x="0"
     inkscape:window-y="0"
     inkscape:window-maximized="1"
     inkscape:current-layer="layer1">
    <inkscape:grid
       type="xygrid"
       id="grid2887"
       originx="0"
       originy="0" />
  </sodipodi:namedview>
  <defs
     id="defs2763">
    <linearGradient
       inkscape:collect="always"
       id="linearGradient11532">
      <stop
         style="stop-color:#ffffff;stop-opacity:1;"
         offset="0"
         id="stop11528" />
      <stop
         style="stop-color:#ffffff;stop-opacity:0;"
         offset="1"
         id="stop11530" />
    </linearGradient>
    <linearGradient
       inkscape:collect="always"
       id="linearGradient8822">
      <stop
         style="stop-color:#ffffff;stop-opacity:1;"
         offset="0"
         id="stop8818" />
      <stop
         style="stop-color:#ffffff;stop-opacity:0;"
         offset="1"
         id="stop8820" />
    </linearGradient>
    <linearGradient
       inkscape:collect="always"
       id="linearGradient8808">
      <stop
         style="stop-color:#000000;stop-opacity:1;"
         offset="0"
         id="stop8804" />
      <stop
         style="stop-color:#000000;stop-opacity:0;"
         offset="1"
         id="stop8806" />
    </linearGradient>
    <linearGradient
       inkscape:collect="always"
       id="linearGradient2284">
      <stop
         style="stop-color:#000000;stop-opacity:1;"
         offset="0"
         id="stop2280" />
      <stop
         style="stop-color:#000000;stop-opacity:0;"
         offset="1"
         id="stop2282" />
    </linearGradient>
    <linearGradient
       inkscape:collect="always"
       id="linearGradient2273">
      <stop
         style="stop-color:#000000;stop-opacity:1;"
         offset="0"
         id="stop2269" />
      <stop
         style="stop-color:#000000;stop-opacity:0;"
         offset="1"
         id="stop2271" />
    </linearGradient>
    <linearGradient
       inkscape:collect="always"
       id="linearGradient2254">
      <stop
         style="stop-color:#000000;stop-opacity:1;"
         offset="0"
         id="stop2250" />
      <stop
         style="stop-color:#000000;stop-opacity:0;"
         offset="1"
         id="stop2252" />
    </linearGradient>
    <linearGradient
       inkscape:collect="always"
       id="linearGradient2235">
      <stop
         style="stop-color:#000000;stop-opacity:1;"
         offset="0"
         id="stop2231" />
      <stop
         style="stop-color:#000000;stop-opacity:0;"
         offset="1"
         id="stop2233" />
    </linearGradient>
    <linearGradient
       inkscape:collect="always"
       id="linearGradient2172">
      <stop
         style="stop-color:#000000;stop-opacity:1"
         offset="0"
         id="stop2168" />
      <stop
         style="stop-color:#000000;stop-opacity:0;"
         offset="1"
         id="stop2170" />
    </linearGradient>
    <linearGradient
       inkscape:collect="always"
       id="linearGradient1408">
      <stop
         style="stop-color:#000000;stop-opacity:0.2"
         offset="0"
         id="stop1404" />
      <stop
         style="stop-color:#000000;stop-opacity:0;"
         offset="1"
         id="stop1406" />
    </linearGradient>
    <linearGradient
       inkscape:collect="always"
       id="linearGradient1289">
      <stop
         style="stop-color:#ffffff;stop-opacity:1;"
         offset="0"
         id="stop1285" />
      <stop
         style="stop-color:#ffffff;stop-opacity:0;"
         offset="1"
         id="stop1287" />
    </linearGradient>
    <linearGradient
       inkscape:collect="always"
       id="linearGradient1225">
      <stop
         style="stop-color:#000000;stop-opacity:1;"
         offset="0"
         id="stop1221" />
      <stop
         style="stop-color:#000000;stop-opacity:0;"
         offset="1"
         id="stop1223" />
    </linearGradient>
    <linearGradient
       inkscape:collect="always"
       xlink:href="#linearGradient1225"
       id="linearGradient1227"
       x1="52.916664"
       y1="23.8125"
       x2="60.854164"
       y2="15.875"
       gradientUnits="userSpaceOnUse"
       gradientTransform="translate(-18.520834)" />
    <linearGradient
       inkscape:collect="always"
       xlink:href="#linearGradient1289"
       id="linearGradient1283"
       x1="26.458332"
       y1="20.902082"
       x2="23.8125"
       y2="23.8125"
       gradientUnits="userSpaceOnUse" />
    <linearGradient
       inkscape:collect="always"
       xlink:href="#linearGradient1408"
       id="linearGradient1410"
       x1="89.958328"
       y1="31.75"
       x2="97.895828"
       y2="23.8125"
       gradientUnits="userSpaceOnUse" />
    <linearGradient
       inkscape:collect="always"
       xlink:href="#linearGradient1408"
       id="linearGradient1416"
       gradientUnits="userSpaceOnUse"
       x1="89.958328"
       y1="31.75"
       x2="82.020828"
       y2="23.8125" />
    <linearGradient
       inkscape:collect="always"
       xlink:href="#linearGradient1289"
       id="linearGradient1436"
       gradientUnits="userSpaceOnUse"
       x1="26.458332"
       y1="20.902082"
       x2="23.8125"
       y2="23.8125"
       gradientTransform="translate(18.533316,-7.924922)" />
    <linearGradient
       inkscape:collect="always"
       xlink:href="#linearGradient1289"
       id="linearGradient1440"
       gradientUnits="userSpaceOnUse"
       gradientTransform="translate(37.028958,-7.950001)"
       x1="26.458332"
       y1="20.902082"
       x2="23.8125"
       y2="23.8125" />
    <linearGradient
       inkscape:collect="always"
       xlink:href="#linearGradient2172"
       id="linearGradient2174"
       x1="52.916664"
       y1="23.8125"
       x2="60.854164"
       y2="15.875"
       gradientUnits="userSpaceOnUse" />
    <linearGradient
       inkscape:collect="always"
       xlink:href="#linearGradient2235"
       id="linearGradient2237"
       x1="34.395832"
       y1="13.229166"
       x2="37.041668"
       y2="10.583333"
       gradientUnits="userSpaceOnUse" />
    <linearGradient
       inkscape:collect="always"
       xlink:href="#linearGradient2235"
       id="linearGradient2241"
       gradientUnits="userSpaceOnUse"
       x1="34.395832"
       y1="13.229166"
       x2="37.041664"
       y2="10.583333"
       gradientTransform="translate(18.520834)" />
    <linearGradient
       inkscape:collect="always"
       xlink:href="#linearGradient2235"
       id="linearGradient2245"
       gradientUnits="userSpaceOnUse"
       gradientTransform="translate(-18.520832,7.9374993)"
       x1="34.395832"
       y1="13.229166"
       x2="37.041664"
       y2="10.583334" />
    <linearGradient
       inkscape:collect="always"
       xlink:href="#linearGradient2254"
       id="linearGradient2256"
       x1="15.875"
       y1="21.166666"
       x2="13.229166"
       y2="23.8125"
       gradientUnits="userSpaceOnUse" />
    <linearGradient
       inkscape:collect="always"
       xlink:href="#linearGradient2273"
       id="linearGradient2275"
       x1="89.958328"
       y1="21.166666"
       x2="87.3125"
       y2="23.8125"
       gradientUnits="userSpaceOnUse" />
    <linearGradient
       inkscape:collect="always"
       xlink:href="#linearGradient2284"
       id="linearGradient2286"
       x1="89.958328"
       y1="21.166666"
       x2="92.604164"
       y2="18.520834"
       gradientUnits="userSpaceOnUse" />
    <linearGradient
       inkscape:collect="always"
       xlink:href="#linearGradient1289"
       id="linearGradient3572"
       gradientUnits="userSpaceOnUse"
       x1="26.458332"
       y1="20.902082"
       x2="23.8125"
       y2="23.8125"
       gradientTransform="translate(74.095735,0.012661)" />
    <linearGradient
       inkscape:collect="always"
       xlink:href="#linearGradient8808"
       id="linearGradient8810"
       x1="56.885414"
       y1="-29.104166"
       x2="58.208332"
       y2="-30.427082"
       gradientUnits="userSpaceOnUse" />
    <linearGradient
       inkscape:collect="always"
       xlink:href="#linearGradient8808"
       id="linearGradient8812"
       x1="56.885414"
       y1="-29.104166"
       x2="55.5625"
       y2="-27.78125"
       gradientUnits="userSpaceOnUse" />
    <linearGradient
       inkscape:collect="always"
       xlink:href="#linearGradient8822"
       id="linearGradient8816"
       x1="58.208332"
       y1="-33.072918"
       x2="56.885414"
       y2="-31.75"
       gradientUnits="userSpaceOnUse" />
    <linearGradient
       inkscape:collect="always"
       xlink:href="#linearGradient11532"
       id="linearGradient11534"
       x1="87.3125"
       y1="29.104166"
       x2="89.958328"
       y2="26.458332"
       gradientUnits="userSpaceOnUse" />
  </defs>
  <g
     inkscape:label="Layer 1"
     inkscape:groupmode="layer"
     id="layer1">
    <rect
       style="opacity:1;fill:#000000;stroke:none;stroke-width:0.264583;stroke-linejoin:round;paint-order:stroke markers fill"
       id="rect8913"
       width="105.83333"
       height="39.6875"
       x="4.6059453e-14"
       y="508" />
    <path
       id="path9949"
       style="opacity:1;fill:#1a1a1a;stroke:none;stroke-width:0.264583;stroke-linejoin:round;paint-order:stroke markers fill"
       d="m 13.229164,529.16665 v 15.875 h 5.291666 v -7.9375 a 2.6458318,2.6458318 0 0 1 2.645834,-2.64584 2.6458318,2.6458318 0 0 1 2.645833,2.64584 v 7.9375 h 5.291667 v -7.9375 a 7.9375,7.9375 0 0 0 -7.9375,-7.9375 7.9375,7.9375 0 0 0 -2.645834,0.45423 v -0.45423 z" />
    <path
       id="path9951"
       style="opacity:1;fill:#1a1a1a;stroke:none;stroke-width:0.264583;stroke-linejoin:round;paint-order:stroke markers fill"
       d="m 95.249996,529.16665 a 7.9375,7.9375 0 0 0 -7.9375,7.9375 7.9375,7.9375 0 0 0 7.9375,7.9375 7.9375,7.9375 0 0 0 7.822264,-6.61459 h -5.530931 a 2.6458318,2.6458318 0 0 1 -2.291333,1.32292 2.6458318,2.6458318 0 0 1 -2.645833,-2.64583 2.6458318,2.6458318 0 0 1 2.645833,-2.64584 2.6458318,2.6458318 0 0 1 2.291333,1.32292 h 5.534541 a 7.9375,7.9375 0 0 0 -7.825874,-6.61458 z" />
    <path
       id="path3193"
       style="opacity:1;fill:#1a1a1a;stroke-width:0.561266;stroke-linejoin:round;paint-order:stroke markers fill"
       d="m 31.749999,521.22915 v 23.81249 h 5.291668 v -7.9375 h 2.32854 l 3.492292,7.9375 h 5.291668 l -4.075204,-9.26248 c 2.137352,-1.42226 3.546036,-3.8527 3.546036,-6.61251 0,-4.38376 -3.553744,-7.9375 -7.9375,-7.9375 z m 5.291668,5.29166 h 2.645832 c 1.461254,0 2.645834,1.18458 2.645834,2.64584 0,1.46125 -1.18458,2.64583 -2.645834,2.64583 h -2.645832 z" />
    <path
       id="path3195"
       style="opacity:1;fill:#1a1a1a;stroke-width:0.561266;stroke-linejoin:round;paint-order:stroke markers fill"
       d="m 50.270833,521.22915 v 23.81249 h 5.291668 v -7.9375 h 2.645832 c 4.383759,0 7.937499,-3.55374 7.937499,-7.93749 0,-4.38376 -3.55374,-7.9375 -7.937499,-7.9375 z m 5.291668,5.29166 h 2.645832 c 1.461253,0 2.645833,1.18458 2.645833,2.64584 0,1.46125 -1.18458,2.64583 -2.645833,2.64583 h -2.645832 z"
       sodipodi:nodetypes="ccccsscccssscc" />
    <path
       id="path3197"
       style="opacity:1;fill:#1a1a1a;stroke-width:0.561266;stroke-linejoin:round;paint-order:stroke markers fill"
       d="m 68.791664,521.22915 h 5.291668 l 5.291666,13.22916 v -13.22916 h 5.291668 v 23.81249 h -5.291668 l -5.291666,-13.22916 v 13.22916 h -5.291668 z"
       sodipodi:nodetypes="ccccccccccc" />
    <path
       id="path10723"
       style="opacity:1;fill:#333333;stroke:none;stroke-width:0.264583;stroke-linejoin:round;paint-order:stroke markers fill"
       d="m 11.906247,527.84373 v 15.875 h 5.291666 v -7.9375 a 2.6458318,2.6458318 0 0 1 2.645834,-2.64583 2.6458318,2.6458318 0 0 1 2.645833,2.64583 v 7.9375 h 5.291667 v -7.9375 a 7.9375,7.9375 0 0 0 -7.9375,-7.9375 7.9375,7.9375 0 0 0 -2.645834,0.45424 v -0.45424 z" />
    <path
       id="path10725"
       style="opacity:1;fill:#333333;stroke:none;stroke-width:0.264583;stroke-linejoin:round;paint-order:stroke markers fill"
       d="m 93.927079,527.84373 a 7.9375,7.9375 0 0 0 -7.9375,7.9375 7.9375,7.9375 0 0 0 7.9375,7.9375 7.9375,7.9375 0 0 0 7.822261,-6.61458 h -5.530928 a 2.6458318,2.6458318 0 0 1 -2.291333,1.32291 2.6458318,2.6458318 0 0 1 -2.645833,-2.64583 2.6458318,2.6458318 0 0 1 2.645833,-2.64583 2.6458318,2.6458318 0 0 1 2.291333,1.32291 h 5.534538 a 7.9375,7.9375 0 0 0 -7.825871,-6.61458 z" />
    <path
       id="path10727"
       style="opacity:1;fill:#333333;stroke-width:0.561266;stroke-linejoin:round;paint-order:stroke markers fill"
       d="m 30.427082,519.90623 v 23.8125 h 5.291668 v -7.9375 h 2.32854 l 3.492292,7.9375 h 5.291668 l -4.075204,-9.26249 c 2.137352,-1.42226 3.546036,-3.8527 3.546036,-6.61251 0,-4.38376 -3.553744,-7.9375 -7.9375,-7.9375 z m 5.291668,5.29167 h 2.645832 c 1.461254,0 2.645834,1.18458 2.645834,2.64583 0,1.46125 -1.18458,2.64583 -2.645834,2.64583 H 35.71875 Z" />
    <path
       id="path10729"
       style="opacity:1;fill:#333333;stroke-width:0.561266;stroke-linejoin:round;paint-order:stroke markers fill"
       d="m 48.947916,519.90623 v 23.8125 h 5.291668 v -7.9375 h 2.645832 c 4.383759,0 7.937499,-3.55374 7.937499,-7.9375 0,-4.38376 -3.55374,-7.9375 -7.937499,-7.9375 z m 5.291668,5.29167 h 2.645832 c 1.461253,0 2.645833,1.18458 2.645833,2.64583 0,1.46125 -1.18458,2.64583 -2.645833,2.64583 h -2.645832 z"
       sodipodi:nodetypes="ccccsscccssscc" />
    <path
       id="path10731"
       style="opacity:1;fill:#333333;stroke-width:0.561266;stroke-linejoin:round;paint-order:stroke markers fill"
       d="m 67.468747,519.90623 h 5.291668 l 5.291666,13.22916 v -13.22916 h 5.291668 v 23.8125 h -5.291668 l -5.291666,-13.22917 v 13.22917 h -5.291668 z"
       sodipodi:nodetypes="ccccccccccc" />
    <path
       id="path10733"
       style="opacity:1;fill:#4d4d4d;stroke:none;stroke-width:0.264583;stroke-linejoin:round;paint-order:stroke markers fill"
       d="m 10.58333,526.52081 v 15.875 h 5.291666 v -7.9375 a 2.6458318,2.6458318 0 0 1 2.645834,-2.64583 2.6458318,2.6458318 0 0 1 2.645833,2.64583 v 7.9375 h 5.291667 v -7.9375 a 7.9375,7.9375 0 0 0 -7.9375,-7.9375 7.9375,7.9375 0 0 0 -2.645834,0.45424 v -0.45424 z" />
    <path
       id="path10735"
       style="opacity:1;fill:#4d4d4d;stroke:none;stroke-width:0.264583;stroke-linejoin:round;paint-order:stroke markers fill"
       d="m 92.604162,526.52081 a 7.9375,7.9375 0 0 0 -7.9375,7.9375 7.9375,7.9375 0 0 0 7.9375,7.9375 7.9375,7.9375 0 0 0 7.822268,-6.61458 h -5.530935 a 2.6458318,2.6458318 0 0 1 -2.291333,1.32292 2.6458318,2.6458318 0 0 1 -2.645833,-2.64584 2.6458318,2.6458318 0 0 1 2.645833,-2.64583 2.6458318,2.6458318 0 0 1 2.291333,1.32292 h 5.534545 a 7.9375,7.9375 0 0 0 -7.825878,-6.61459 z" />
    <path
       id="path10737"
       style="opacity:1;fill:#4d4d4d;stroke-width:0.561266;stroke-linejoin:round;paint-order:stroke markers fill"
       d="m 29.104165,518.58331 v 23.8125 h 5.291668 v -7.9375 h 2.32854 l 3.492292,7.9375 h 5.291668 l -4.075204,-9.26248 c 2.137352,-1.42227 3.546036,-3.85271 3.546036,-6.61252 0,-4.38375 -3.553744,-7.9375 -7.9375,-7.9375 z m 5.291668,5.29167 h 2.645832 c 1.461254,0 2.645834,1.18458 2.645834,2.64583 0,1.46125 -1.18458,2.64584 -2.645834,2.64584 h -2.645832 z" />
    <path
       id="path10739"
       style="opacity:1;fill:#4d4d4d;stroke-width:0.561266;stroke-linejoin:round;paint-order:stroke markers fill"
       d="m 47.624999,518.58331 v 23.8125 h 5.291668 v -7.9375 h 2.645832 c 4.383759,0 7.937499,-3.55374 7.937499,-7.9375 0,-4.38376 -3.55374,-7.9375 -7.937499,-7.9375 z m 5.291668,5.29167 h 2.645832 c 1.461253,0 2.645833,1.18458 2.645833,2.64583 0,1.46126 -1.18458,2.64584 -2.645833,2.64584 h -2.645832 z"
       sodipodi:nodetypes="ccccsscccssscc" />
    <path
       id="path10741"
       style="opacity:1;fill:#4d4d4d;stroke-width:0.561266;stroke-linejoin:round;paint-order:stroke markers fill"
       d="m 66.14583,518.58331 h 5.291668 l 5.291666,13.22917 v -13.22917 h 5.291668 v 23.8125 h -5.291668 l -5.291666,-13.22916 v 13.22916 H 66.14583 Z"
       sodipodi:nodetypes="ccccccccccc" />
    <path
       id="path10743"
       style="opacity:1;fill:#666666;stroke:none;stroke-width:0.264583;stroke-linejoin:round;paint-order:stroke markers fill"
       d="m 9.2604163,525.1979 v 15.875 h 5.2916657 v -7.9375 a 2.6458318,2.6458318 0 0 1 2.645834,-2.64584 2.6458318,2.6458318 0 0 1 2.645833,2.64584 v 7.9375 h 5.291667 v -7.9375 a 7.9375,7.9375 0 0 0 -7.9375,-7.9375 7.9375,7.9375 0 0 0 -2.645834,0.45423 v -0.45423 z" />
    <path
       id="path10745"
       style="opacity:1;fill:#666666;stroke:none;stroke-width:0.264583;stroke-linejoin:round;paint-order:stroke markers fill"
       d="m 91.281248,525.1979 a 7.9375,7.9375 0 0 0 -7.9375,7.9375 7.9375,7.9375 0 0 0 7.9375,7.9375 7.9375,7.9375 0 0 0 7.822268,-6.61459 h -5.530935 a 2.6458318,2.6458318 0 0 1 -2.291333,1.32292 2.6458318,2.6458318 0 0 1 -2.645833,-2.64583 2.6458318,2.6458318 0 0 1 2.645833,-2.64584 2.6458318,2.6458318 0 0 1 2.291333,1.32292 h 5.534545 a 7.9375,7.9375 0 0 0 -7.825878,-6.61458 z" />
    <path
       id="path10747"
       style="opacity:1;fill:#666666;stroke-width:0.561266;stroke-linejoin:round;paint-order:stroke markers fill"
       d="m 27.781251,517.2604 v 23.81249 h 5.291668 v -7.9375 h 2.32854 l 3.492292,7.9375 h 5.291668 l -4.075204,-9.26248 c 2.137352,-1.42226 3.546036,-3.8527 3.546036,-6.61252 0,-4.38375 -3.553744,-7.93749 -7.9375,-7.93749 z m 5.291668,5.29166 h 2.645832 c 1.461254,0 2.645834,1.18458 2.645834,2.64583 0,1.46126 -1.18458,2.64584 -2.645834,2.64584 h -2.645832 z" />
    <path
       id="path10749"
       style="opacity:1;fill:#666666;stroke-width:0.561266;stroke-linejoin:round;paint-order:stroke markers fill"
       d="m 46.302085,517.2604 v 23.81249 h 5.291668 v -7.9375 h 2.645832 c 4.383759,0 7.937499,-3.55374 7.937499,-7.9375 0,-4.38376 -3.55374,-7.93749 -7.937499,-7.93749 z m 5.291668,5.29166 h 2.645832 c 1.461253,0 2.645833,1.18458 2.645833,2.64583 0,1.46126 -1.18458,2.64584 -2.645833,2.64584 h -2.645832 z"
       sodipodi:nodetypes="ccccsscccssscc" />
    <path
       id="path10751"
       style="opacity:1;fill:#666666;stroke-width:0.561266;stroke-linejoin:round;paint-order:stroke markers fill"
       d="m 64.822916,517.2604 h 5.291668 l 5.291666,13.22916 V 517.2604 h 5.291668 v 23.81249 H 75.40625 l -5.291666,-13.22916 v 13.22916 h -5.291668 z"
       sodipodi:nodetypes="ccccccccccc" />
    <path
       id="rect3001"
       style="fill:#ffffff;stroke-width:0.561266;stroke-linejoin:round;paint-order:stroke markers fill"
       d="m 26.458334,515.93748 v 23.8125 h 5.291668 v -7.9375 h 2.32854 l 3.492292,7.9375 h 5.291668 l -4.075204,-9.26249 c 2.137352,-1.42226 3.546036,-3.8527 3.546036,-6.61251 0,-4.38376 -3.553744,-7.9375 -7.9375,-7.9375 z m 5.291668,5.29167 h 2.645832 c 1.461254,0 2.645834,1.18458 2.645834,2.64583 0,1.46125 -1.18458,2.64583 -2.645834,2.64583 h -2.645832 z" />
    <path
       id="path3175"
       style="fill:#ffffff;stroke-width:0.561266;stroke-linejoin:round;paint-order:stroke markers fill"
       d="m 44.979168,515.93748 v 23.8125 h 5.291668 v -7.9375 h 2.645832 c 4.383759,0 7.937499,-3.55374 7.937499,-7.9375 0,-4.38376 -3.55374,-7.9375 -7.937499,-7.9375 z m 5.291668,5.29167 h 2.645832 c 1.461254,0 2.645834,1.18457 2.645834,2.64583 0,1.46125 -1.18458,2.64583 -2.645834,2.64583 h -2.645832 z"
       sodipodi:nodetypes="ccccsscccssscc" />
    <path
       id="path3180"
       style="fill:#ffffff;stroke-width:0.561266;stroke-linejoin:round;paint-order:stroke markers fill"
       d="m 63.499999,515.93748 h 5.291668 l 5.291666,13.22916 v -13.22916 h 5.291668 v 23.8125 h -5.291668 l -5.291666,-13.22917 v 13.22917 h -5.291668 z"
       sodipodi:nodetypes="ccccccccccc" />
    <path
       id="path9925"
       style="opacity:1;fill:#ffffff;stroke:none;stroke-width:0.264583;stroke-linejoin:round;paint-order:stroke markers fill"
       d="m 7.9374999,523.87498 v 15.875 h 5.2916661 v -7.9375 a 2.6458318,2.6458318 0 0 1 2.645834,-2.64584 2.6458318,2.6458318 0 0 1 2.645833,2.64584 v 7.9375 H 23.8125 v -7.9375 a 7.9375,7.9375 0 0 0 -7.9375,-7.9375 7.9375,7.9375 0 0 0 -2.645834,0.45423 v -0.45423 z" />
    <path
       id="path9929"
       style="opacity:1;fill:#ffffff;stroke:none;stroke-width:0.264583;stroke-linejoin:round;paint-order:stroke markers fill"
       d="m 89.958332,523.87498 a 7.9375,7.9375 0 0 0 -7.9375,7.9375 7.9375,7.9375 0 0 0 7.9375,7.9375 7.9375,7.9375 0 0 0 7.822261,-6.61459 h -5.530928 a 2.6458318,2.6458318 0 0 1 -2.291333,1.32292 2.6458318,2.6458318 0 0 1 -2.645833,-2.64583 2.6458318,2.6458318 0 0 1 2.645833,-2.64584 2.6458318,2.6458318 0 0 1 2.291333,1.32292 h 5.534546 a 7.9375,7.9375 0 0 0 -7.825879,-6.61458 z" />
    <path
       id="path17883"
       style="opacity:1;fill:#1a1a1a;fill-opacity:1;stroke:none;stroke-width:0.0264583;stroke-linejoin:round;paint-order:stroke markers fill"
       d="m 62.472862,14.20599 -0.661458,0.661459 1.322916,1.322916 0.661459,-0.661458 z"
       sodipodi:nodetypes="ccccc" />
    <rect
       style="opacity:1;fill:#000000;stroke:none;stroke-width:0.264583;stroke-linejoin:round;paint-order:stroke markers fill"
       id="rect12788"
       width="105.83333"
       height="39.6875"
       x="0"
       y="7.1054274e-15" />
    <path
       id="path12790"
       style="opacity:1;fill:#1a1a1a;stroke:none;stroke-width:0.264583;stroke-linejoin:round;paint-order:stroke markers fill"
       d="m 13.229164,21.166668 -1.322917,14.552083 1.322917,1.322916 h 5.291666 v -7.937499 c -1e-6,-1.461254 1.18458,-2.645835 2.645834,-2.645834 1.461254,-1e-6 2.645834,1.18458 2.645833,2.645834 l -1.322917,6.614583 1.322917,1.322916 h 5.291667 v -7.937499 c 0,-4.38376 -3.55374,-7.9375 -7.9375,-7.9375 -0.901338,9.1e-5 -1.796077,0.153699 -2.645834,0.454236 v -0.454236 z"
       sodipodi:nodetypes="ccccssscccscccc" />
    <path
       id="path12792"
       style="opacity:1;fill:#1a1a1a;stroke:none;stroke-width:0.264583;stroke-linejoin:round;paint-order:stroke markers fill"
       d="m 95.249996,21.166668 c -4.38376,0 -7.9375,3.55374 -7.9375,7.9375 10e-7,4.38376 3.55374,7.937499 7.9375,7.937499 3.871667,-0.0021 7.176984,-2.797068 7.822264,-6.614583 l -1.32292,-1.322916 -4.208011,1.322916 c -0.472628,0.818616 -1.346077,1.322908 -2.291333,1.322917 -1.461253,10e-7 -2.645834,-1.18458 -2.645833,-2.645833 -10e-7,-1.461254 1.184579,-2.645835 2.645833,-2.645834 0.945256,9e-6 1.818705,0.504301 2.291333,1.322917 h 5.534541 c -0.64551,-3.81886 -3.952843,-6.614287 -7.825874,-6.614583 z"
       sodipodi:nodetypes="csccccsssccc" />
    <path
       id="path12794"
       style="opacity:1;fill:#1a1a1a;stroke-width:0.561266;stroke-linejoin:round;paint-order:stroke markers fill"
       d="m 31.749999,13.229167 -1.322917,22.489582 1.322917,1.322916 h 5.291668 v -7.9375 h 2.32854 l 2.169375,6.614584 1.322917,1.322916 h 5.291668 l -4.075204,-9.262484 c 2.137352,-1.422262 3.546036,-3.852703 3.546036,-6.612514 0,-4.383756 -3.553744,-7.9375 -7.9375,-7.9375 z m 5.291668,5.291666 h 2.645832 c 1.461254,0 2.645834,1.184581 2.645834,2.645834 0,1.461252 -1.18458,2.645833 -2.645834,2.645833 h -2.645832 z"
       sodipodi:nodetypes="ccccccccccssccssscc" />
    <path
       id="path17885"
       style="opacity:1;fill:#1a1a1a;fill-opacity:1;stroke:none;stroke-width:0.0264583;stroke-linejoin:round;paint-order:stroke markers fill"
       d="m 43.952328,14.205689 -0.661458,0.661459 1.322916,1.322916 0.661459,-0.661458 z"
       sodipodi:nodetypes="ccccc" />
    <path
       id="path12796"
       style="opacity:1;fill:#1a1a1a;stroke-width:0.561266;stroke-linejoin:round;paint-order:stroke markers fill"
       d="m 50.270833,13.229167 -1.322917,22.489582 1.322917,1.322916 h 5.291668 v -7.9375 h 2.645832 c 4.383759,0 7.937499,-3.55374 7.937499,-7.937498 0,-4.38376 -3.55374,-7.9375 -7.937499,-7.9375 z m 5.291668,5.291666 h 2.645832 c 1.461253,0 2.645833,1.18458 2.645833,2.645834 0,1.461253 -1.18458,2.645833 -2.645833,2.645833 h -2.645832 z"
       sodipodi:nodetypes="cccccsscccssscc" />
    <path
       id="path12798"
       style="opacity:1;fill:#1a1a1a;stroke-width:0.561266;stroke-linejoin:round;paint-order:stroke markers fill"
       d="m 68.791664,13.229167 3.968751,-1.322916 1.322917,1.322916 5.291666,11.906248 V 13.229167 l 3.968751,-1.322916 1.322917,1.322916 V 37.041665 H 79.374998 L 78.052081,35.718749 74.083332,25.135417 v 11.906248 h -5.291668 l -1.322917,-1.322916 z"
       sodipodi:nodetypes="ccccccccccccccc" />
    <path
       id="path17907"
       style="opacity:1;fill:#1a1a1a;fill-opacity:1;stroke:none;stroke-width:0.0264583;stroke-linejoin:round;paint-order:stroke markers fill"
       d="m 25.431496,22.143189 -0.661459,0.661459 1.322916,1.322916 0.661459,-0.661458 z"
       sodipodi:nodetypes="ccccc" />
    <path
       id="path12800"
       style="opacity:1;fill:#333333;stroke:none;stroke-width:0.264583;stroke-linejoin:round;paint-order:stroke markers fill"
       d="m 11.906247,19.843752 -1.322917,14.552082 1.322917,1.322917 h 5.291666 v -7.937499 c -1e-6,-1.461254 1.18458,-2.645835 2.645834,-2.645834 1.461254,-1e-6 2.645834,1.18458 2.645833,2.645834 l -1.322917,6.614582 1.322917,1.322917 h 5.291667 v -7.937499 c 0,-4.38376 -3.55374,-7.9375 -7.9375,-7.9375 -0.901338,9.1e-5 -1.796077,0.153699 -2.645834,0.454236 v -0.454236 z"
       sodipodi:nodetypes="ccccssscccscccc" />
    <path
       id="path17875"
       style="fill:#1a1a1a;fill-opacity:1;stroke:none;stroke-width:0.0264583;stroke-linejoin:round;paint-order:stroke markers fill"
       d="m 99.539359,22.168543 -0.661459,0.661458 1.32291,1.322917 0.66146,-0.661458 z m -10.564213,10.564213 -0.660942,0.660941 1.322917,1.322917 0.660942,-0.660941 z" />
    <path
       id="path12802"
       style="opacity:1;fill:#333333;stroke:none;stroke-width:0.264583;stroke-linejoin:round;paint-order:stroke markers fill"
       d="m 93.927079,19.843752 c -4.38376,0 -7.9375,3.55374 -7.9375,7.9375 10e-7,4.38376 3.55374,7.937499 7.9375,7.937499 3.871666,-0.0021 7.176981,-2.797069 7.822261,-6.614583 l -1.32291,-1.322917 -4.208018,1.322917 c -0.472628,0.818616 -1.346077,1.322908 -2.291333,1.322917 -1.461253,10e-7 -2.645834,-1.18458 -2.645833,-2.645833 -10e-7,-1.461254 1.184579,-2.645835 2.645833,-2.645834 0.945256,9e-6 1.818705,0.504301 2.291333,1.322917 h 5.534538 c -0.64551,-3.818859 -3.952841,-6.614286 -7.825871,-6.614583 z"
       sodipodi:nodetypes="csccccsssccc" />
    <path
       id="path12804"
       style="opacity:1;fill:#333333;stroke-width:0.561266;stroke-linejoin:round;paint-order:stroke markers fill"
       d="m 30.427082,11.906251 -1.322917,22.489581 1.322917,1.322917 h 5.291668 v -7.9375 h 2.32854 l 2.169375,6.614583 1.322917,1.322917 h 5.291668 l -4.075204,-9.262484 c 2.137352,-1.422262 3.546036,-3.852703 3.546036,-6.612514 0,-4.383756 -3.553744,-7.9375 -7.9375,-7.9375 z m 5.291668,5.291666 h 2.645832 c 1.461254,0 2.645834,1.184581 2.645834,2.645834 0,1.461252 -1.18458,2.645833 -2.645834,2.645833 H 35.71875 Z"
       sodipodi:nodetypes="ccccccccccssccssscc" />
    <path
       id="path12806"
       style="opacity:1;fill:#333333;stroke-width:0.561266;stroke-linejoin:round;paint-order:stroke markers fill"
       d="m 48.947916,11.906251 -1.322917,22.489581 1.322917,1.322917 h 5.291668 v -7.9375 h 2.645832 c 4.383759,0 7.937499,-3.55374 7.937499,-7.937498 0,-4.38376 -3.55374,-7.9375 -7.937499,-7.9375 z m 5.291668,5.291666 h 2.645832 c 1.461253,0 2.645833,1.18458 2.645833,2.645834 0,1.461253 -1.18458,2.645833 -2.645833,2.645833 h -2.645832 z"
       sodipodi:nodetypes="cccccsscccssscc" />
    <path
       id="path12808"
       style="opacity:1;fill:#333333;stroke-width:0.561266;stroke-linejoin:round;paint-order:stroke markers fill"
       d="m 67.468747,11.906251 3.968751,-1.322916 1.322917,1.322916 5.291666,11.906248 0,-11.906248 3.968751,-1.322916 1.322917,1.322916 v 23.812498 h -5.291668 l -1.322917,-1.322917 -3.968749,-10.583331 0,11.906248 H 67.468747 L 66.14583,34.395832 Z"
       sodipodi:nodetypes="ccccccccccccccc" />
    <path
       id="path17913"
       style="opacity:1;fill:#333333;fill-opacity:1;stroke:none;stroke-width:0.0264583;stroke-linejoin:round;paint-order:stroke markers fill"
       d="m 24.1086,20.820293 -0.661459,0.661459 1.322916,1.322916 0.661459,-0.661458 z"
       sodipodi:nodetypes="ccccc" />
    <path
       id="path12810"
       style="opacity:1;fill:#4d4d4d;stroke:none;stroke-width:0.264583;stroke-linejoin:round;paint-order:stroke markers fill"
       d="M 10.58333,18.520835 9.2604163,33.072916 10.58333,34.395834 h 5.291666 v -7.937499 c -10e-7,-1.461254 1.18458,-2.645835 2.645834,-2.645834 1.461254,-1e-6 2.645834,1.18458 2.645833,2.645834 l -1.322914,6.614581 1.322914,1.322918 h 5.291667 v -7.937499 c 0,-4.38376 -3.55374,-7.9375 -7.9375,-7.9375 -0.901338,9.1e-5 -1.796077,0.153699 -2.645834,0.454236 v -0.454236 z"
       sodipodi:nodetypes="ccccssscccscccc" />
    <path
       id="path17873"
       style="fill:#333333;fill-opacity:1;stroke:none;stroke-width:0.0264583;stroke-linejoin:round;paint-order:stroke markers fill"
       d="m 98.216524,20.845974 -0.661459,0.661458 1.322917,1.322917 0.661458,-0.661458 z m -10.564213,10.564213 -0.660942,0.660941 1.322917,1.322917 0.660942,-0.660941 z" />
    <path
       id="path12812"
       style="opacity:1;fill:#4d4d4d;stroke:none;stroke-width:0.264583;stroke-linejoin:round;paint-order:stroke markers fill"
       d="m 92.604162,18.520835 c -4.38376,0 -7.9375,3.55374 -7.9375,7.9375 10e-7,4.38376 3.55374,7.937499 7.9375,7.937499 3.871668,-0.0021 7.17699,-2.797066 7.822268,-6.614583 l -1.322914,-1.322918 -4.208021,1.322918 c -0.472628,0.818616 -1.346077,1.322908 -2.291333,1.322917 -1.461253,10e-7 -2.645834,-1.18458 -2.645833,-2.645833 -1e-6,-1.461254 1.184579,-2.645835 2.645833,-2.645834 0.945256,9e-6 1.818705,0.504301 2.291333,1.322917 h 5.534545 c -0.645506,-3.818862 -3.952845,-6.614289 -7.825878,-6.614583 z"
       sodipodi:nodetypes="csccccsssccc" />
    <path
       id="path17891"
       style="opacity:1;fill:#333333;fill-opacity:1;stroke:none;stroke-width:0.0264583;stroke-linejoin:round;paint-order:stroke markers fill"
       d="m 42.629432,12.882793 -0.661458,0.661459 1.322916,1.322916 0.661459,-0.661458 z"
       sodipodi:nodetypes="ccccc" />
    <path
       id="path12814"
       style="opacity:1;fill:#4d4d4d;stroke-width:0.561266;stroke-linejoin:round;paint-order:stroke markers fill"
       d="m 29.104165,10.583335 -1.322914,22.489579 1.322914,1.322918 h 5.291668 v -7.9375 h 2.32854 l 2.169378,6.614582 1.322914,1.322918 h 5.291668 l -4.075204,-9.262484 c 2.137352,-1.422262 3.546036,-3.852703 3.546036,-6.612514 0,-4.383756 -3.553744,-7.937499 -7.9375,-7.937499 z M 34.395833,15.875 h 2.645832 c 1.461254,0 2.645834,1.184581 2.645834,2.645834 0,1.461252 -1.18458,2.645833 -2.645834,2.645833 h -2.645832 z"
       sodipodi:nodetypes="ccccccccccssccssscc" />
    <path
       id="path17881"
       style="opacity:1;fill:#333333;fill-opacity:1;stroke:none;stroke-width:0.0264583;stroke-linejoin:round;paint-order:stroke markers fill"
       d="m 61.149966,12.883094 -0.661458,0.661459 1.322916,1.322916 0.661459,-0.661458 z"
       sodipodi:nodetypes="ccccc" />
    <path
       id="path12818"
       style="opacity:1;fill:#4d4d4d;stroke-width:0.561266;stroke-linejoin:round;paint-order:stroke markers fill"
       d="m 66.14583,10.583335 3.968754,-1.322918 1.322914,1.322918 5.291666,11.906247 0,-11.906247 3.968754,-1.322918 1.322914,1.322918 v 23.812497 h -5.291668 l -1.322914,-1.322918 -3.968752,-10.58333 0,11.906248 H 66.14583 l -1.322914,-1.322918 z"
       sodipodi:nodetypes="ccccccccccccccc" />
    <path
       id="path17911"
       style="opacity:1;fill:#4d4d4d;fill-opacity:1;stroke:none;stroke-width:0.0264583;stroke-linejoin:round;paint-order:stroke markers fill"
       d="m 22.810574,19.522756 -0.661458,0.661459 1.322916,1.322916 0.661459,-0.661458 z"
       sodipodi:nodetypes="ccccc" />
    <path
       id="path12820"
       style="opacity:1;fill:#666666;stroke:none;stroke-width:0.264583;stroke-linejoin:round;paint-order:stroke markers fill"
       d="m 9.2604163,17.197917 -1.3229164,14.552082 1.3229164,1.322917 h 5.2916657 v -7.937499 c -1e-6,-1.461254 1.18458,-2.645835 2.645834,-2.645834 1.461254,-1e-6 2.645834,1.18458 2.645833,2.645834 l -1.322916,6.614582 1.322916,1.322917 h 5.291667 v -7.937499 c 0,-4.38376 -3.55374,-7.9375 -7.9375,-7.9375 -0.901338,9.1e-5 -1.796077,0.153699 -2.645834,0.454236 V 17.197917 L 13.229166,15.875 Z"
       sodipodi:nodetypes="ccccssscccsccccc" />
    <path
       id="path17909"
       style="opacity:1;fill:#666666;fill-opacity:1;stroke:none;stroke-width:0.0264583;stroke-linejoin:round;paint-order:stroke markers fill"
       d="m 21.487658,18.19984 -0.661458,0.661459 1.322916,1.322916 0.661459,-0.661458 z"
       sodipodi:nodetypes="ccccc" />
    <path
       id="path17861"
       style="fill:#4d4d4d;fill-opacity:1;stroke:none;stroke-width:0.0264583;stroke-linejoin:round;paint-order:stroke markers fill"
       d="M 96.893826 19.522839 L 96.232367 20.184297 L 97.555284 21.507214 L 98.216742 20.845756 L 96.893826 19.522839 z M 86.329613 30.087052 L 85.668671 30.747993 L 86.991588 32.07091 L 87.65253 31.409969 L 86.329613 30.087052 z " />
    <path
       id="path12822"
       style="opacity:1;fill:#666666;stroke:none;stroke-width:0.264583;stroke-linejoin:round;paint-order:stroke markers fill"
       d="m 91.281248,17.197917 c -4.38376,0 -7.9375,3.55374 -7.9375,7.9375 10e-7,4.38376 3.55374,7.937499 7.9375,7.937499 3.871668,-0.0021 7.17699,-2.797066 7.822268,-6.614583 l -1.322923,-1.322917 -4.208012,1.322917 c -0.472628,0.818616 -1.346077,1.322908 -2.291333,1.322917 -1.461253,1e-6 -2.645834,-1.18458 -2.645833,-2.645833 -10e-7,-1.461254 1.184579,-2.645835 2.645833,-2.645834 0.945256,9e-6 1.818705,0.504301 2.291333,1.322917 h 5.534545 C 98.46162,19.993638 95.154281,17.198211 91.281248,17.197917 Z"
       sodipodi:nodetypes="csccccsssccc" />
    <path
       id="path17889"
       style="opacity:1;fill:#4d4d4d;fill-opacity:1;stroke:none;stroke-width:0.0264583;stroke-linejoin:round;paint-order:stroke markers fill"
       d="m 41.331407,11.585256 -0.661458,0.661459 1.322916,1.322916 0.661459,-0.661458 z"
       sodipodi:nodetypes="ccccc" />
    <path
       id="path12824"
       style="opacity:1;fill:#666666;stroke-width:0.561266;stroke-linejoin:round;paint-order:stroke markers fill"
       d="m 27.781251,9.260417 -1.322917,22.489582 1.322917,1.322915 h 5.291668 v -7.9375 h 2.32854 l 2.169375,6.614585 1.322917,1.322915 h 5.291668 L 40.110215,23.81043 c 2.137352,-1.422262 3.546036,-3.852703 3.546036,-6.612514 0,-4.383756 -3.553744,-7.937499 -7.9375,-7.937499 z m 5.291668,5.291665 h 2.645832 c 1.461254,0 2.645834,1.184581 2.645834,2.645834 0,1.461252 -1.18458,2.645833 -2.645834,2.645833 h -2.645832 z"
       sodipodi:nodetypes="ccccccccccssccssscc" />
    <path
       id="rect1084"
       style="opacity:0.15;fill:#ffffff;stroke-width:0.264583;stroke-linejoin:round;paint-order:stroke markers fill"
       d="m 38.787298,22.487516 5.291665,5.291665 4.075203,9.262485 L 42.862499,31.75 Z"
       sodipodi:nodetypes="ccccc" />
    <path
       id="path12816"
       style="opacity:1;fill:#4d4d4d;stroke-width:0.561266;stroke-linejoin:round;paint-order:stroke markers fill"
       d="m 47.624999,10.583335 -1.322914,22.489579 1.322914,1.322918 h 5.291668 v -7.9375 h 2.645832 c 4.383759,0 7.937499,-3.55374 7.937499,-7.937498 0,-4.38376 -3.55374,-7.937499 -7.937499,-7.937499 z M 52.916667,15.875 h 2.645832 c 1.461253,0 2.645833,1.18458 2.645833,2.645834 0,1.461253 -1.18458,2.645833 -2.645833,2.645833 h -2.645832 z"
       sodipodi:nodetypes="cccccsscccssscc" />
    <path
       id="path17887"
       style="opacity:1;fill:#666666;fill-opacity:1;stroke:none;stroke-width:0.0264583;stroke-linejoin:round;paint-order:stroke markers fill"
       d="m 40.008491,10.26234 -0.661458,0.661459 1.322916,1.322916 0.661459,-0.661458 z"
       sodipodi:nodetypes="ccccc" />
    <path
       id="path17879"
       style="opacity:1;fill:#4d4d4d;fill-opacity:1;stroke:none;stroke-width:0.0264583;stroke-linejoin:round;paint-order:stroke markers fill"
       d="m 59.851941,11.585557 -0.661458,0.661459 1.322916,1.322916 0.661459,-0.661458 z"
       sodipodi:nodetypes="ccccc" />
    <path
       id="path12826"
       style="opacity:1;fill:#666666;stroke-width:0.561266;stroke-linejoin:round;paint-order:stroke markers fill"
       d="m 46.302085,9.260417 -1.322917,22.489582 1.322917,1.322915 h 5.291668 v -7.9375 h 2.645832 c 4.383759,0 7.937499,-3.55374 7.937499,-7.937498 0,-4.38376 -3.55374,-7.937499 -7.937499,-7.937499 z m 5.291668,5.291665 h 2.645832 c 1.461253,0 2.645833,1.18458 2.645833,2.645834 0,1.461253 -1.18458,2.645833 -2.645833,2.645833 h -2.645832 z"
       sodipodi:nodetypes="cccccsscccssscc" />
    <path
       id="path12828"
       style="opacity:1;fill:#666666;stroke-width:0.561266;stroke-linejoin:round;paint-order:stroke markers fill"
       d="m 64.822916,9.260417 3.968751,-1.322917 1.322917,1.322917 5.291666,11.906247 0,-11.906247 3.968751,-1.322916 1.322917,1.322916 V 33.072914 H 75.40625 l -1.322917,-1.322915 -3.968749,-10.583333 0,11.906248 h -5.291668 l -1.322917,-1.322915 z"
       sodipodi:nodetypes="ccccccccccccccc" />
    <path
       id="path17877"
       style="opacity:1;fill:#666666;fill-opacity:1;stroke:none;stroke-width:0.0264583;stroke-linejoin:round;paint-order:stroke markers fill"
       d="m 58.529025,10.262641 -0.661458,0.661459 1.322916,1.322916 0.661459,-0.661458 z"
       sodipodi:nodetypes="ccccc" />
    <path
       id="rect17696"
       style="opacity:1;fill:#666666;stroke:none;stroke-width:0.0264583;stroke-linejoin:round;paint-order:stroke markers fill;fill-opacity:1"
       d="M 95.570909 18.199922 L 94.909451 18.861381 L 96.232367 20.184297 L 96.893826 19.522839 L 95.570909 18.199922 z M 85.006696 28.764135 L 84.345755 29.425077 L 85.668671 30.747993 L 86.329613 30.087052 L 85.006696 28.764135 z " />
    <path
       id="rect12957"
       style="opacity:1;fill:#666666;stroke-width:0.0264583;stroke-linejoin:round;paint-order:stroke markers fill"
       d="m 92.249665,22.489583 h 1.322916 V 23.8125 Z"
       sodipodi:nodetypes="cccc" />
    <path
       id="path12960"
       style="opacity:1;fill:#4d4d4d;fill-opacity:1;stroke-width:0.0264583;stroke-linejoin:round;paint-order:stroke markers fill"
       d="m 93.572581,23.812499 h 1.322916 v 1.322917 z"
       sodipodi:nodetypes="cccc" />
    <path
       id="rect363"
       style="stroke-width:0.264583;stroke-linejoin:round;paint-order:stroke markers fill;opacity:0.25"
       d="m 7.9375,31.75 h 5.291667 l 5.291666,5.291666 h -5.291667 z"
       sodipodi:nodetypes="ccccc" />
    <path
       id="path1016"
       style="opacity:0.25;stroke-width:0.264583;stroke-linejoin:round;paint-order:stroke markers fill"
       d="M 18.520833,31.75 H 23.8125 l 5.291666,5.291666 h -5.291667 z"
       sodipodi:nodetypes="ccccc" />
    <path
       id="path1072"
       style="opacity:0.25;stroke-width:0.264583;stroke-linejoin:round;paint-order:stroke markers fill"
       d="M 26.458333,31.75 H 31.75 l 5.291666,5.291666 h -5.291667 z"
       sodipodi:nodetypes="ccccc" />
    <path
       id="path1074"
       style="opacity:0.25;stroke-width:0.264583;stroke-linejoin:round;paint-order:stroke markers fill"
       d="m 37.570834,31.749999 h 5.291665 l 5.291666,5.291666 -5.291665,0 z"
       sodipodi:nodetypes="ccccc" />
    <path
       id="path1076"
       style="opacity:0.25;stroke-width:0.264583;stroke-linejoin:round;paint-order:stroke markers fill"
       d="m 44.979166,31.75 h 5.291667 l 5.291666,5.291666 h -5.291667 z"
       sodipodi:nodetypes="ccccc" />
    <path
       id="path1078"
       style="opacity:0.25;stroke-width:0.264583;stroke-linejoin:round;paint-order:stroke markers fill"
       d="m 63.499999,31.75 h 5.291667 l 5.291666,5.291666 h -5.291667 z"
       sodipodi:nodetypes="ccccc" />
    <path
       id="path1080"
       style="opacity:0.25;stroke-width:0.264583;stroke-linejoin:round;paint-order:stroke markers fill"
       d="m 74.083332,31.75 h 5.291667 l 5.291666,5.291666 h -5.291667 z"
       sodipodi:nodetypes="ccccc" />
    <path
       id="path1082"
       style="opacity:0.25;stroke-width:0.264583;stroke-linejoin:round;paint-order:stroke markers fill"
       d="m 50.270832,23.8125 2.645834,0 5.291666,5.291666 -2.645834,0 z"
       sodipodi:nodetypes="ccccc" />
    <path
       id="path1139"
       style="opacity:0.15;fill:#ffffff;stroke-width:0.264583;stroke-linejoin:round;paint-order:stroke markers fill"
       d="m 68.791665,7.9375025 5.291665,5.2916645 2e-6,6.614583 z"
       sodipodi:nodetypes="cccc" />
    <path
       id="path1141"
       style="opacity:0.25;stroke-width:0.264583;stroke-linejoin:round;paint-order:stroke markers fill"
       d="m 50.270835,13.229167 h 2.645834 l 5.291666,5.291666 h -2.645834 z"
       sodipodi:nodetypes="ccccc" />
    <path
       id="path1143"
       style="opacity:0.25;stroke-width:0.264583;stroke-linejoin:round;paint-order:stroke markers fill"
       d="m 31.750001,13.229167 h 2.645834 l 5.291666,5.291666 h -2.645834 z"
       sodipodi:nodetypes="ccccc" />
    <path
       id="path1145"
       style="opacity:0.25;stroke-width:0.264583;stroke-linejoin:round;paint-order:stroke markers fill"
       d="m 31.750001,23.8125 2.328541,-1e-6 5.291666,5.291666 -2.328541,1e-6 z"
       sodipodi:nodetypes="ccccc" />
    <path
       id="path1147"
       style="opacity:0.25;fill:url(#linearGradient1227);fill-opacity:1;stroke-width:0.561266;stroke-linejoin:round;paint-order:stroke markers fill"
       d="m 42.333332,15.875 c 0,2.759274 -1.409379,5.190136 -3.546034,6.612516 l 5.291665,5.291665 c 2.137504,-1.422241 3.546035,-3.852593 3.546035,-6.612515 z"
       sodipodi:nodetypes="ccccc" />
    <path
       id="path1252"
       style="opacity:0.25;fill:url(#linearGradient1283);stroke:none;stroke-width:0.264583;stroke-linejoin:round;paint-order:stroke markers fill;fill-opacity:1"
       d="M 21.487577,18.199922 C 22.92398,19.636325 23.8125,21.620624 23.8125,23.8125 l 5.291666,5.291666 c 0,-2.204534 -0.899182,-4.199042 -2.350244,-5.637382 l 5.17e-4,-5.16e-4 z"
       sodipodi:nodetypes="cccccc" />
    <path
       id="path1378"
       style="opacity:0.25;fill:url(#linearGradient1410);fill-opacity:1;stroke:none;stroke-width:0.264583;stroke-linejoin:round;paint-order:stroke markers fill"
       d="m 97.780593,25.135416 c -0.645277,3.817514 -3.950595,6.612525 -7.822261,6.614583 l 5.291683,5.291649 c 3.871661,-0.0021 7.176985,-2.797076 7.822265,-6.614583 -1.76389,-1.763888 -3.52778,-3.527779 -5.29167,-5.291667 z"
       sodipodi:nodetypes="cccccc" />
    <path
       id="path1412"
       style="opacity:0.25;fill:url(#linearGradient1416);fill-opacity:1;stroke:none;stroke-width:0.264583;stroke-linejoin:round;paint-order:stroke markers fill"
       d="m 89.958332,31.749999 c -2.104405,-0.002 -4.121902,-0.839519 -5.60896,-2.32854 l -0.0036,0.0036 c 1.763791,1.763955 3.52774,3.527567 5.127904,5.127818 1.600165,1.600251 3.584465,2.488771 5.776339,2.488771 z"
       sodipodi:nodetypes="cccccc" />
    <path
       id="path1418"
       style="opacity:0.25;stroke-width:0.264583;stroke-linejoin:round;paint-order:stroke markers fill"
       d="m 92.249665,22.489583 h 5.534546 l 5.291659,5.291668 h -2.64945 l -2.645827,-2.645835 h -2.885096 z"
       sodipodi:nodetypes="ccccccc" />
    <path
       id="path1420"
       style="opacity:0.25;fill:url(#linearGradient2174);stroke-width:0.561266;stroke-linejoin:round;paint-order:stroke markers fill;fill-opacity:1"
       d="m 60.854166,15.875 c 0,4.383755 -3.553746,7.9375 -7.9375,7.9375 l 5.291666,5.291666 c 4.383751,0 7.9375,-3.55375 7.9375,-7.9375 z"
       sodipodi:nodetypes="ccccc" />
    <path
       id="path1434"
       style="opacity:0.25;fill:url(#linearGradient1436);fill-opacity:1;stroke:none;stroke-width:0.264583;stroke-linejoin:round;paint-order:stroke markers fill"
       d="m 40.020893,10.275 c 1.436403,1.436403 2.324923,3.420702 2.324923,5.612578 l 5.291666,5.291666 c 0,-2.204534 -0.899182,-4.199042 -2.350244,-5.637382 l 5.17e-4,-5.16e-4 z"
       sodipodi:nodetypes="cccccc" />
    <path
       id="path1438"
       style="opacity:0.25;fill:url(#linearGradient1440);fill-opacity:1;stroke:none;stroke-width:0.264583;stroke-linejoin:round;paint-order:stroke markers fill"
       d="m 58.516535,10.249921 c 1.436403,1.436403 2.324923,3.420702 2.324923,5.612578 l 5.291666,5.291666 c 0,-2.204534 -0.899182,-4.199042 -2.350244,-5.637382 l 5.17e-4,-5.16e-4 z"
       sodipodi:nodetypes="cccccc" />
    <path
       id="path2228"
       style="opacity:0.25;stroke-width:0.264583;stroke-linejoin:round;paint-order:stroke markers fill;fill-opacity:1;fill:url(#linearGradient2237)"
       d="m 37.041665,15.875 c -0.264582,-0.264584 -2.381249,-2.38125 -2.645833,-2.645833 1.461253,0 2.645833,1.18458 2.645833,2.645833 z"
       sodipodi:nodetypes="ccc" />
    <path
       id="path2239"
       style="opacity:0.25;fill:url(#linearGradient2241);fill-opacity:1;stroke-width:0.264583;stroke-linejoin:round;paint-order:stroke markers fill"
       d="m 55.562499,15.875 c -0.264582,-0.264584 -2.381249,-2.38125 -2.645833,-2.645833 1.461253,0 2.645833,1.18458 2.645833,2.645833 z"
       sodipodi:nodetypes="ccc" />
    <path
       id="path2243"
       style="opacity:0.25;fill:url(#linearGradient2245);fill-opacity:1;stroke-width:0.264583;stroke-linejoin:round;paint-order:stroke markers fill"
       d="m 18.520833,23.812499 c -0.264582,-0.264584 -2.381249,-2.38125 -2.645833,-2.645833 1.461253,0 2.645833,1.18458 2.645833,2.645833 z"
       sodipodi:nodetypes="ccc" />
    <path
       id="path2247"
       style="opacity:0.25;stroke-width:0.264583;stroke-linejoin:round;paint-order:stroke markers fill;fill-opacity:1;fill:url(#linearGradient2256)"
       d="m 18.520833,23.8125 0,5.291666 -5.291666,-5.291666 c 0,-1.461253 1.18458,-2.645833 2.645833,-2.645833 z"
       sodipodi:nodetypes="ccccc" />
    <path
       id="path2266"
       style="opacity:0.25;fill:url(#linearGradient2275);fill-opacity:1;stroke-width:0.264583;stroke-linejoin:round;paint-order:stroke markers fill"
       d="m 93.927082,25.135416 h -1.677417 c -0.285321,0.493824 -0.728977,0.893765 -1.278813,1.121515 -0.327817,0.135786 -0.671211,0.201586 -1.01252,0.201402 L 87.312499,23.8125 c -1.24e-4,-0.341158 0.06568,-0.684849 0.201406,-1.012517 0.409525,-0.98868 1.374292,-1.633316 2.444431,-1.633316"
       sodipodi:nodetypes="ccsccsc" />
    <path
       id="path2277"
       style="opacity:0.25;stroke-width:0.264583;stroke-linejoin:round;paint-order:stroke markers fill;fill-opacity:1;fill:url(#linearGradient2286)"
       d="m 89.958336,21.166667 c 0.98005,0 1.8341,0.531115 2.291329,1.322916 l 2.645832,2.645833 h -0.968415"
       sodipodi:nodetypes="cccc" />
    <path
       id="path12836"
       style="opacity:1;fill:#ffffff;stroke:none;stroke-width:0.264583;stroke-linejoin:round;paint-order:stroke markers fill"
       d="M 7.9374999,15.875 V 31.749999 H 13.229166 V 23.8125 c -10e-7,-1.461254 1.18458,-2.645835 2.645834,-2.645834 1.461254,-1e-6 2.645834,1.18458 2.645833,2.645834 v 7.937499 H 23.8125 V 23.8125 c 0,-4.38376 -3.55374,-7.9375 -7.9375,-7.9375 -0.901338,9.1e-5 -1.796077,0.153699 -2.645834,0.454236 V 15.875 Z"
       sodipodi:nodetypes="ccccssccscccc" />
    <path
       id="path12838"
       style="opacity:1;fill:#ffffff;stroke:none;stroke-width:0.264583;stroke-linejoin:round;paint-order:stroke markers fill"
       d="m 89.958332,15.875 a 7.9375,7.9375 0 0 0 -7.9375,7.9375 7.9375,7.9375 0 0 0 7.9375,7.937499 7.9375,7.9375 0 0 0 7.822261,-6.614583 h -5.530928 a 2.6458318,2.6458318 0 0 1 -2.291333,1.322917 2.6458318,2.6458318 0 0 1 -2.645833,-2.645833 2.6458318,2.6458318 0 0 1 2.645833,-2.645834 2.6458318,2.6458318 0 0 1 2.291333,1.322917 h 5.534546 A 7.9375,7.9375 0 0 0 89.958332,15.875 Z" />
    <path
       id="path12830"
       style="fill:#ffffff;stroke-width:0.561266;stroke-linejoin:round;paint-order:stroke markers fill"
       d="m 26.458334,7.9375 v 23.812499 h 5.291668 v -7.9375 h 2.32854 l 3.492292,7.9375 h 5.291668 l -4.075204,-9.262483 c 2.137352,-1.422262 3.546036,-3.852704 3.546036,-6.612516 0,-4.383755 -3.553744,-7.9375 -7.9375,-7.9375 z m 5.291668,5.291667 h 2.645832 c 1.461254,0 2.645834,1.184581 2.645834,2.645833 0,1.461252 -1.18458,2.645834 -2.645834,2.645833 h -2.645832 z" />
    <path
       id="path12832"
       style="fill:#ffffff;stroke-width:0.561266;stroke-linejoin:round;paint-order:stroke markers fill"
       d="m 44.979168,7.9375 v 23.812499 h 5.291668 v -7.9375 h 2.645832 c 4.383759,0 7.937499,-3.553739 7.937499,-7.937499 0,-4.38376 -3.55374,-7.9375 -7.937499,-7.9375 z m 5.291668,5.291667 h 2.645832 c 1.461254,0 2.645834,1.184579 2.645834,2.645833 0,1.461254 -1.18458,2.645834 -2.645834,2.645833 h -2.645832 z"
       sodipodi:nodetypes="ccccsscccssscc" />
    <path
       id="path12834"
       style="fill:#ffffff;stroke-width:0.561266;stroke-linejoin:round;paint-order:stroke markers fill"
       d="m 63.499999,7.937501 5.291668,-1e-6 5.291666,11.90625 0,-11.90625 5.291668,1e-6 V 31.749999 H 74.083333 L 68.791667,19.84375 v 11.906249 h -5.291668 z"
       sodipodi:nodetypes="ccccccccccc" />
    <path
       id="path3570"
       style="opacity:0.25;fill:url(#linearGradient3572);fill-opacity:1;stroke:none;stroke-width:0.264583;stroke-linejoin:round;paint-order:stroke markers fill"
       d="m 95.583312,18.212583 c 1.139591,1.139591 1.921115,2.617632 2.200899,4.277 l 5.291659,5.291668 c -0.28258,-1.669677 -1.07428,-3.159964 -2.22622,-4.301806 l 5.2e-4,-5.16e-4 z"
       sodipodi:nodetypes="cccccc" />
    <path
       id="circle8689"
       style="opacity:1;fill:#808080;stroke-width:0.264583;stroke-linejoin:round;paint-order:stroke markers fill"
       d="m 57.272988,-28.168823 c 0.334181,0.334322 0.821354,0.464931 1.277958,0.342615 0.456464,-0.12234 0.813004,-0.47888 0.935343,-0.935344 0.122316,-0.456604 -0.0083,-0.943777 -0.342615,-1.277958 l -1.322915,-1.322916 c -0.242328,-0.242489 -0.569326,-0.38144 -0.912089,-0.387573 -0.123457,-0.0022 -0.246608,0.01297 -0.365869,0.04496 -0.456464,0.122339 -0.813004,0.478879 -0.935343,0.935343 -0.122317,0.456604 0.0083,0.943778 0.342614,1.277959 z"
       sodipodi:nodetypes="cccccccccc" />
    <path
       id="path8793"
       style="opacity:0.25;fill:url(#linearGradient8816);fill-opacity:1;stroke-width:0.264583;stroke-linejoin:round;paint-order:stroke markers fill"
       d="m 56.885416,-31.749999 2.645833,2.645832 c -1.26e-4,-0.346221 -0.136208,-0.684078 -0.387574,-0.935343 l -1.322916,-1.322916 c -0.242328,-0.242489 -0.569326,-0.381441 -0.912089,-0.387573 -0.0077,-1.38e-4 -0.01554,10e-7 -0.02325,0 z"
       sodipodi:nodetypes="ccccsc" />
    <path
       id="path8798"
       style="opacity:0.25;fill:url(#linearGradient8810);fill-opacity:1;stroke-width:0.264583;stroke-linejoin:round;paint-order:stroke markers fill"
       d="m 56.862161,-31.749999 c -0.107908,0.0019 -0.215007,0.01697 -0.31936,0.04496 -0.456464,0.122339 -0.813005,0.47888 -0.935343,0.935343 -0.03035,0.113298 -0.045,0.228358 -0.04496,0.342615 l 2.645833,2.645833 c 0.114257,4.2e-5 0.229318,-0.01461 0.342615,-0.04496 0.456463,-0.12234 0.813004,-0.47888 0.935343,-0.935344 0.03035,-0.113297 0.045,-0.228357 0.04496,-0.342615 l -2.645833,-2.645832 c -0.0077,-2e-6 -0.01555,-1.34e-4 -0.02325,0 z"
       sodipodi:nodetypes="sccccccccss" />
    <path
       id="path8788"
       style="opacity:0.25;fill:url(#linearGradient8812);fill-opacity:1;stroke-width:0.264583;stroke-linejoin:round;paint-order:stroke markers fill"
       d="m 55.562499,-30.427083 c 1.25e-4,0.346222 0.136209,0.684079 0.387573,0.935344 l 1.322917,1.322916 c 0.251264,0.25137 0.589122,0.387449 0.935343,0.387573 z"
       sodipodi:nodetypes="ccccc" />
    <circle
       style="opacity:1;fill:#ffffff;stroke-width:0.264583;stroke-linejoin:round;paint-order:stroke markers fill"
       id="path8635"
       cx="56.885414"
       cy="-30.427082"
       r="1.3229166" />
    <path
       id="rect8824"
       style="opacity:1;fill:#808080;stroke-width:0.264583;stroke-linejoin:round;paint-order:stroke markers fill"
       d="m 47.625,-31.75 h 2.645833 l 1.322916,1.322917 0,2.645832 -2.645833,1e-6 -1.322916,-1.322917 z"
       sodipodi:nodetypes="ccccccc" />
    <rect
       style="opacity:1;fill:#ffffff;stroke-width:0.264583;stroke-linejoin:round;paint-order:stroke markers fill"
       id="rect8827"
       width="2.6458333"
       height="2.6458333"
       x="47.625"
       y="-31.75" />
    <path
       id="rect8829"
       style="opacity:0.25;fill:#000000;stroke-width:0.264583;stroke-linejoin:round;paint-order:stroke markers fill"
       d="m 47.625,-29.104166 h 2.645833 l 1.322916,1.322916 h -2.645833 z"
       sodipodi:nodetypes="ccccc" />
    <path
       style="opacity:0.25;fill:url(#linearGradient11534);stroke-width:0.264583;stroke-linejoin:round;paint-order:stroke markers fill;fill-opacity:1"
       id="path11526"
       sodipodi:type="arc"
       sodipodi:cx="89.958336"
       sodipodi:cy="23.8125"
       sodipodi:rx="2.6458333"
       sodipodi:ry="2.6458333"
       sodipodi:start="1.5707963"
       sodipodi:end="3.1415927"
       sodipodi:open="true"
       sodipodi:arc-type="arc"
       d="M 89.958336,26.458333 A 2.6458333,2.6458333 0 0 1 88.087449,25.683387 2.6458333,2.6458333 0 0 1 87.312503,23.8125" />
  </g>
</svg>
