<?xml version="1.0" encoding="UTF-8" standalone="no"?>
<!-- Created with Inkscape (http://www.inkscape.org/) -->

<svg
   width="400"
   height="150"
   viewBox="0 0 105.83333 39.6875"
   version="1.1"
   id="svg2766"
   inkscape:version="1.2.2 (b0a8486541, 2022-12-01)"
   sodipodi:docname="logo.svg"
   xmlns:inkscape="http://www.inkscape.org/namespaces/inkscape"
   xmlns:sodipodi="http://sodipodi.sourceforge.net/DTD/sodipodi-0.dtd"
   xmlns="http://www.w3.org/2000/svg"
   xmlns:svg="http://www.w3.org/2000/svg">
  <sodipodi:namedview
     id="namedview2768"
     pagecolor="#505050"
     bordercolor="#eeeeee"
     borderopacity="1"
     inkscape:showpageshadow="0"
     inkscape:pageopacity="0"
     inkscape:pagecheckerboard="0"
     inkscape:deskcolor="#505050"
     inkscape:document-units="px"
     showgrid="false"
     inkscape:zoom="1.4142136"
     inkscape:cx="0.35355339"
     inkscape:cy="151.6744"
     inkscape:window-width="2560"
     inkscape:window-height="1392"
     inkscape:window-x="0"
     inkscape:window-y="0"
     inkscape:window-maximized="1"
     inkscape:current-layer="layer1">
    <inkscape:grid
       type="xygrid"
       id="grid2887"
       originx="0"
       originy="0" />
  </sodipodi:namedview>
  <defs
     id="defs2763" />
  <g
     inkscape:label="Layer 1"
     inkscape:groupmode="layer"
     id="layer1">
    <rect
       style="opacity:1;fill:#000000;stroke:none;stroke-width:0.264583;stroke-linejoin:round;paint-order:stroke markers fill"
       id="rect8913"
       width="105.83333"
       height="39.6875"
       x="0"
       y="0" />
    <path
       id="rect3001"
       style="stroke-width:0.561266;stroke-linejoin:round;paint-order:stroke markers fill;fill:#ffffff"
       d="M 26.458334,7.9375005 V 31.749999 h 5.291668 v -7.9375 h 2.32854 l 3.492292,7.9375 h 5.291668 l -4.075204,-9.262483 c 2.137352,-1.422262 3.546036,-3.852704 3.546036,-6.612516 0,-4.383755 -3.553744,-7.9374995 -7.9375,-7.9374995 z m 5.291668,5.2916665 h 2.645832 c 1.461254,0 2.645834,1.184581 2.645834,2.645833 0,1.461252 -1.18458,2.645834 -2.645834,2.645833 h -2.645832 z" />
    <path
       id="path3175"
       style="stroke-width:0.561266;stroke-linejoin:round;paint-order:stroke markers fill;fill:#ffffff"
       d="M 44.979168,7.9375005 V 31.749999 h 5.291668 v -7.9375 h 2.645832 c 4.383759,0 7.937499,-3.553739 7.937499,-7.937499 0,-4.38376 -3.55374,-7.9374995 -7.937499,-7.9374995 z m 5.291668,5.2916665 h 2.645832 c 1.461254,0 2.645834,1.184579 2.645834,2.645833 0,1.461254 -1.18458,2.645834 -2.645834,2.645833 h -2.645832 z"
       sodipodi:nodetypes="ccccsscccssscc" />
    <path
       id="path3180"
       style="stroke-width:0.561266;stroke-linejoin:round;paint-order:stroke markers fill;fill:#ffffff"
       d="m 63.499999,7.9375007 5.291668,-2e-7 5.291666,13.2291655 V 7.9375005 l 5.291668,2e-7 V 31.749999 H 74.083333 L 68.791667,18.520833 v 13.229166 h -5.291668 z"
       sodipodi:nodetypes="ccccccccccc" />
    <path
       id="path9949"
       style="opacity:0.1;fill:#ffffff;stroke:none;stroke-width:0.264583;stroke-linejoin:round;paint-order:stroke markers fill"
       d="m 13.229164,21.166668 v 15.874999 h 5.291666 v -7.937499 a 2.6458318,2.6458318 0 0 1 2.645834,-2.645834 2.6458318,2.6458318 0 0 1 2.645833,2.645834 v 7.937499 h 5.291667 v -7.937499 a 7.9375,7.9375 0 0 0 -7.9375,-7.9375 7.9375,7.9375 0 0 0 -2.645834,0.454236 v -0.454236 z" />
    <path
       id="path9951"
       style="opacity:0.1;fill:#ffffff;stroke:none;stroke-width:0.264583;stroke-linejoin:round;paint-order:stroke markers fill"
       d="m 95.249996,21.166668 a 7.9375,7.9375 0 0 0 -7.9375,7.9375 7.9375,7.9375 0 0 0 7.9375,7.937499 7.9375,7.9375 0 0 0 7.822264,-6.614583 h -5.530931 a 2.6458318,2.6458318 0 0 1 -2.291333,1.322917 2.6458318,2.6458318 0 0 1 -2.645833,-2.645833 2.6458318,2.6458318 0 0 1 2.645833,-2.645834 2.6458318,2.6458318 0 0 1 2.291333,1.322917 h 5.534541 a 7.9375,7.9375 0 0 0 -7.825874,-6.614583 z" />
    <path
       id="path3193"
       style="opacity:0.1;fill:#ffffff;stroke-width:0.561266;stroke-linejoin:round;paint-order:stroke markers fill"
       d="m 31.749999,13.229167 v 23.812498 h 5.291668 v -7.9375 h 2.32854 l 3.492292,7.9375 h 5.291668 l -4.075204,-9.262484 c 2.137352,-1.422262 3.546036,-3.852703 3.546036,-6.612514 0,-4.383756 -3.553744,-7.9375 -7.9375,-7.9375 z m 5.291668,5.291666 h 2.645832 c 1.461254,0 2.645834,1.184581 2.645834,2.645834 0,1.461252 -1.18458,2.645833 -2.645834,2.645833 h -2.645832 z" />
    <path
       id="path3195"
       style="opacity:0.1;fill:#ffffff;stroke-width:0.561266;stroke-linejoin:round;paint-order:stroke markers fill"
       d="m 50.270833,13.229167 v 23.812498 h 5.291668 v -7.9375 h 2.645832 c 4.383759,0 7.937499,-3.55374 7.937499,-7.937498 0,-4.38376 -3.55374,-7.9375 -7.937499,-7.9375 z m 5.291668,5.291666 h 2.645832 c 1.461253,0 2.645833,1.18458 2.645833,2.645834 0,1.461253 -1.18458,2.645833 -2.645833,2.645833 h -2.645832 z"
       sodipodi:nodetypes="ccccsscccssscc" />
    <path
       id="path3197"
       style="opacity:0.1;fill:#ffffff;stroke-width:0.561266;stroke-linejoin:round;paint-order:stroke markers fill"
       d="m 68.791664,13.229167 h 5.291668 l 5.291666,13.229164 V 13.229167 h 5.291668 V 37.041665 H 79.374998 L 74.083332,23.8125 v 13.229165 h -5.291668 z"
       sodipodi:nodetypes="ccccccccccc" />
    <path
       id="path9925"
       style="opacity:1;fill:#ffffff;stroke:none;stroke-width:0.264583;stroke-linejoin:round;paint-order:stroke markers fill"
       d="M 7.9374999 15.875 L 7.9374999 31.749999 L 13.229166 31.749999 L 13.229166 23.8125 A 2.6458318 2.6458318 0 0 1 15.875 21.166666 A 2.6458318 2.6458318 0 0 1 18.520833 23.8125 L 18.520833 31.749999 L 23.8125 31.749999 L 23.8125 23.8125 A 7.9375 7.9375 0 0 0 15.875 15.875 A 7.9375 7.9375 0 0 0 13.229166 16.329236 L 13.229166 15.875 L 7.9374999 15.875 z " />
    <path
       id="path9929"
       style="opacity:1;fill:#ffffff;stroke:none;stroke-width:0.264583;stroke-linejoin:round;paint-order:stroke markers fill"
       d="M 89.958332 15.875 A 7.9375 7.9375 0 0 0 82.020832 23.8125 A 7.9375 7.9375 0 0 0 89.958332 31.749999 A 7.9375 7.9375 0 0 0 97.780593 25.135416 L 92.249665 25.135416 A 2.6458318 2.6458318 0 0 1 89.958332 26.458333 A 2.6458318 2.6458318 0 0 1 87.312499 23.8125 A 2.6458318 2.6458318 0 0 1 89.958332 21.166666 A 2.6458318 2.6458318 0 0 1 92.249665 22.489583 L 97.784211 22.489583 A 7.9375 7.9375 0 0 0 89.958332 15.875 z " />
    <path
       id="path10723"
       style="opacity:0.2;fill:#ffffff;stroke:none;stroke-width:0.264583;stroke-linejoin:round;paint-order:stroke markers fill"
       d="m 11.906247,19.843752 v 15.874999 h 5.291666 v -7.937499 a 2.6458318,2.6458318 0 0 1 2.645834,-2.645834 2.6458318,2.6458318 0 0 1 2.645833,2.645834 v 7.937499 h 5.291667 v -7.937499 a 7.9375,7.9375 0 0 0 -7.9375,-7.9375 7.9375,7.9375 0 0 0 -2.645834,0.454236 v -0.454236 z" />
    <path
       id="path10725"
       style="opacity:0.2;fill:#ffffff;stroke:none;stroke-width:0.264583;stroke-linejoin:round;paint-order:stroke markers fill"
       d="m 93.927079,19.843752 a 7.9375,7.9375 0 0 0 -7.9375,7.9375 7.9375,7.9375 0 0 0 7.9375,7.937499 7.9375,7.9375 0 0 0 7.822261,-6.614583 h -5.530928 a 2.6458318,2.6458318 0 0 1 -2.291333,1.322917 2.6458318,2.6458318 0 0 1 -2.645833,-2.645833 2.6458318,2.6458318 0 0 1 2.645833,-2.645834 2.6458318,2.6458318 0 0 1 2.291333,1.322917 h 5.534538 a 7.9375,7.9375 0 0 0 -7.825871,-6.614583 z" />
    <path
       id="path10727"
       style="opacity:0.2;fill:#ffffff;stroke-width:0.561266;stroke-linejoin:round;paint-order:stroke markers fill"
       d="m 30.427082,11.906251 v 23.812498 h 5.291668 v -7.9375 h 2.32854 l 3.492292,7.9375 h 5.291668 l -4.075204,-9.262484 c 2.137352,-1.422262 3.546036,-3.852703 3.546036,-6.612514 0,-4.383756 -3.553744,-7.9375 -7.9375,-7.9375 z m 5.291668,5.291666 h 2.645832 c 1.461254,0 2.645834,1.184581 2.645834,2.645834 0,1.461252 -1.18458,2.645833 -2.645834,2.645833 H 35.71875 Z" />
    <path
       id="path10729"
       style="opacity:0.2;fill:#ffffff;stroke-width:0.561266;stroke-linejoin:round;paint-order:stroke markers fill"
       d="m 48.947916,11.906251 v 23.812498 h 5.291668 v -7.9375 h 2.645832 c 4.383759,0 7.937499,-3.55374 7.937499,-7.937498 0,-4.38376 -3.55374,-7.9375 -7.937499,-7.9375 z m 5.291668,5.291666 h 2.645832 c 1.461253,0 2.645833,1.18458 2.645833,2.645834 0,1.461253 -1.18458,2.645833 -2.645833,2.645833 h -2.645832 z"
       sodipodi:nodetypes="ccccsscccssscc" />
    <path
       id="path10731"
       style="opacity:0.2;fill:#ffffff;stroke-width:0.561266;stroke-linejoin:round;paint-order:stroke markers fill"
       d="m 67.468747,11.906251 h 5.291668 l 5.291666,13.229164 V 11.906251 h 5.291668 V 35.718749 H 78.052081 L 72.760415,22.489584 v 13.229165 h -5.291668 z"
       sodipodi:nodetypes="ccccccccccc" />
    <path
       id="path10733"
       style="opacity:0.3;fill:#ffffff;stroke:none;stroke-width:0.264583;stroke-linejoin:round;paint-order:stroke markers fill"
       d="m 10.58333,18.520835 v 15.874999 h 5.291666 v -7.937499 a 2.6458318,2.6458318 0 0 1 2.645834,-2.645834 2.6458318,2.6458318 0 0 1 2.645833,2.645834 v 7.937499 h 5.291667 v -7.937499 a 7.9375,7.9375 0 0 0 -7.9375,-7.9375 7.9375,7.9375 0 0 0 -2.645834,0.454236 v -0.454236 z" />
    <path
       id="path10735"
       style="opacity:0.3;fill:#ffffff;stroke:none;stroke-width:0.264583;stroke-linejoin:round;paint-order:stroke markers fill"
       d="m 92.604162,18.520835 a 7.9375,7.9375 0 0 0 -7.9375,7.9375 7.9375,7.9375 0 0 0 7.9375,7.937499 7.9375,7.9375 0 0 0 7.822268,-6.614583 h -5.530935 a 2.6458318,2.6458318 0 0 1 -2.291333,1.322917 2.6458318,2.6458318 0 0 1 -2.645833,-2.645833 2.6458318,2.6458318 0 0 1 2.645833,-2.645834 2.6458318,2.6458318 0 0 1 2.291333,1.322917 h 5.534545 a 7.9375,7.9375 0 0 0 -7.825878,-6.614583 z" />
    <path
       id="path10737"
       style="opacity:0.3;fill:#ffffff;stroke-width:0.561266;stroke-linejoin:round;paint-order:stroke markers fill"
       d="m 29.104165,10.583335 v 23.812497 h 5.291668 v -7.9375 h 2.32854 l 3.492292,7.9375 h 5.291668 l -4.075204,-9.262484 c 2.137352,-1.422262 3.546036,-3.852703 3.546036,-6.612514 0,-4.383756 -3.553744,-7.937499 -7.9375,-7.937499 z M 34.395833,15.875 h 2.645832 c 1.461254,0 2.645834,1.184581 2.645834,2.645834 0,1.461252 -1.18458,2.645833 -2.645834,2.645833 h -2.645832 z" />
    <path
       id="path10739"
       style="opacity:0.3;fill:#ffffff;stroke-width:0.561266;stroke-linejoin:round;paint-order:stroke markers fill"
       d="m 47.624999,10.583335 v 23.812497 h 5.291668 v -7.9375 h 2.645832 c 4.383759,0 7.937499,-3.55374 7.937499,-7.937498 0,-4.38376 -3.55374,-7.937499 -7.937499,-7.937499 z M 52.916667,15.875 h 2.645832 c 1.461253,0 2.645833,1.18458 2.645833,2.645834 0,1.461253 -1.18458,2.645833 -2.645833,2.645833 h -2.645832 z"
       sodipodi:nodetypes="ccccsscccssscc" />
    <path
       id="path10741"
       style="opacity:0.3;fill:#ffffff;stroke-width:0.561266;stroke-linejoin:round;paint-order:stroke markers fill"
       d="m 66.14583,10.583335 h 5.291668 l 5.291666,13.229163 V 10.583335 h 5.291668 V 34.395832 H 76.729164 L 71.437498,21.166667 V 34.395832 H 66.14583 Z"
       sodipodi:nodetypes="ccccccccccc" />
    <path
       id="path10743"
       style="opacity:0.4;fill:#ffffff;stroke:none;stroke-width:0.264583;stroke-linejoin:round;paint-order:stroke markers fill"
       d="m 9.2604163,17.197917 v 15.874999 h 5.2916657 v -7.937499 a 2.6458318,2.6458318 0 0 1 2.645834,-2.645834 2.6458318,2.6458318 0 0 1 2.645833,2.645834 v 7.937499 h 5.291667 v -7.937499 a 7.9375,7.9375 0 0 0 -7.9375,-7.9375 7.9375,7.9375 0 0 0 -2.645834,0.454236 v -0.454236 z" />
    <path
       id="path10745"
       style="opacity:0.4;fill:#ffffff;stroke:none;stroke-width:0.264583;stroke-linejoin:round;paint-order:stroke markers fill"
       d="m 91.281248,17.197917 a 7.9375,7.9375 0 0 0 -7.9375,7.9375 7.9375,7.9375 0 0 0 7.9375,7.937499 7.9375,7.9375 0 0 0 7.822268,-6.614583 h -5.530935 a 2.6458318,2.6458318 0 0 1 -2.291333,1.322917 2.6458318,2.6458318 0 0 1 -2.645833,-2.645833 2.6458318,2.6458318 0 0 1 2.645833,-2.645834 2.6458318,2.6458318 0 0 1 2.291333,1.322917 h 5.534545 a 7.9375,7.9375 0 0 0 -7.825878,-6.614583 z" />
    <path
       id="path10747"
       style="opacity:0.4;fill:#ffffff;stroke-width:0.561266;stroke-linejoin:round;paint-order:stroke markers fill"
       d="M 27.781251,9.2604171 V 33.072914 h 5.291668 v -7.9375 h 2.32854 l 3.492292,7.9375 h 5.291668 L 40.110215,23.81043 c 2.137352,-1.422262 3.546036,-3.852703 3.546036,-6.612514 0,-4.383756 -3.553744,-7.9374989 -7.9375,-7.9374989 z m 5.291668,5.2916649 h 2.645832 c 1.461254,0 2.645834,1.184581 2.645834,2.645834 0,1.461252 -1.18458,2.645833 -2.645834,2.645833 h -2.645832 z" />
    <path
       id="path10749"
       style="opacity:0.4;fill:#ffffff;stroke-width:0.561266;stroke-linejoin:round;paint-order:stroke markers fill"
       d="M 46.302085,9.2604171 V 33.072914 h 5.291668 v -7.9375 h 2.645832 c 4.383759,0 7.937499,-3.55374 7.937499,-7.937498 0,-4.38376 -3.55374,-7.9374989 -7.937499,-7.9374989 z m 5.291668,5.2916649 h 2.645832 c 1.461253,0 2.645833,1.18458 2.645833,2.645834 0,1.461253 -1.18458,2.645833 -2.645833,2.645833 h -2.645832 z"
       sodipodi:nodetypes="ccccsscccssscc" />
    <path
       id="path10751"
       style="opacity:0.4;fill:#ffffff;stroke-width:0.561266;stroke-linejoin:round;paint-order:stroke markers fill"
       d="m 64.822916,9.2604171 h 5.291668 L 75.40625,22.48958 V 9.2604171 h 5.291668 V 33.072914 H 75.40625 L 70.114584,19.843749 v 13.229165 h -5.291668 z"
       sodipodi:nodetypes="ccccccccccc" />
  </g>
</svg>
